# xmcd CD database file
#
# Track frame offsets:
#	150
#	14507
#	38300
#	62390
#	81082
#	101977
#	121257
#	143087
#	164087
#	182015
#	202875
#	235345
#
# Disc length: 4440 seconds
#
# Revision: 0
# Processed by: cddbd v1.5PL3 Copyright (c) Steve Scherf et al.
# Submitted via: CDex 1.50beta9
#
DISCID=9811560c
DTITLE=BREATH - Heart of Mine
DYEAR=2003
DGENRE=JPop
TTITLE0=Mary Jane
TTITLE1=瞳にくぎづけ（Album Version）
TTITLE2=Warmness
TTITLE3=アイ・ラブ・ユー
TTITLE4=Fall in love
TTITLE5=甘いキッス
TTITLE6=Bridge
TTITLE7=渚に消えた恋
TTITLE8=今もし君の心に僕がいなくても
TTITLE9=spin
TTITLE10=重ねてく世界
TTITLE11=CDS CCCD DATA
EXTD=YEAR: 2003
EXTT0=
EXTT1=
EXTT2=
EXTT3=
EXTT4=
EXTT5=
EXTT6=
EXTT7=
EXTT8=
EXTT9=
EXTT10=
EXTT11=
PLAYORDER=
